<!DOCTYPE svg PUBLIC "-//W3C//DTD SVG 20010904//EN" "http://www.w3.org/TR/2001/REC-SVG-20010904/DTD/svg10.dtd">
<svg version="1.0" xmlns="http://www.w3.org/2000/svg" width="700px" height="700px" viewBox="0 0 7000 7000" preserveAspectRatio="xMidYMid meet">
<g id="layer101" fill="#000000" stroke="none">
 <path d="M1995 6094 l-1490 -863 -3 -1734 -2 -1734 1490 -863 c937 -542 1497 -860 1508 -858 10 3 685 391 1500 863 l1482 857 0 1733 0 1733 -1496 866 c-823 476 -1497 866 -1498 865 0 0 -671 -390 -1491 -865z m2900 -185 l1385 -801 0 -1613 0 -1612 -1395 -807 -1395 -807 -1395 807 -1395 807 0 1613 0 1614 43 22 c23 12 45 21 49 20 5 -1 8 3 8 10 0 6 3 8 7 5 3 -4 11 0 17 8 6 7 18 15 26 17 8 2 23 11 34 20 10 10 23 15 28 12 4 -3 8 -1 8 4 0 5 8 13 18 16 9 3 26 12 37 19 12 6 52 31 90 54 302 183 2423 1402 2432 1398 7 -2 636 -365 1398 -806z"/>
 <path d="M3435 6590 c-22 -11 -88 -42 -147 -70 l-108 -50 0 -2943 0 -2942 38 -25 c20 -13 91 -55 157 -92 l120 -68 5 1349 5 1348 49 -206 c128 -542 294 -1184 441 -1701 46 -162 91 -324 101 -360 9 -36 20 -69 25 -74 9 -10 419 201 419 217 0 6 -31 106 -69 221 -179 543 -488 1586 -498 1681 -5 53 19 192 167 980 122 644 300 1528 410 2028 12 53 20 103 17 110 -4 11 -387 247 -401 247 -2 0 -8 -21 -12 -47 -3 -27 -42 -250 -85 -498 -89 -504 -216 -1261 -281 -1672 -23 -150 -45 -269 -49 -265 -7 8 -97 371 -184 745 l-55 237 0 935 c0 742 -3 935 -12 934 -7 0 -31 -9 -53 -19z"/>
 <path d="M2495 6105 l-180 -114 -7 -48 c-3 -26 -18 -203 -33 -393 -24 -319 -73 -834 -110 -1145 -8 -71 -27 -233 -40 -360 -53 -486 -151 -1341 -163 -1405 -6 -39 -11 -18 -30 150 -77 663 -160 1340 -242 1973 -47 366 -59 470 -71 620 -6 86 -16 157 -20 157 -7 0 -375 -224 -388 -236 -3 -3 -13 -82 -22 -177 -10 -94 -27 -242 -39 -327 -11 -85 -31 -247 -45 -360 -43 -359 -74 -611 -95 -760 -11 -80 -29 -215 -40 -300 -42 -333 -154 -1161 -175 -1295 -26 -164 -35 -150 140 -206 83 -26 162 -55 178 -64 34 -20 47 -13 47 28 0 18 7 79 15 137 8 58 26 209 40 335 14 127 30 259 35 295 11 66 45 371 100 882 16 153 34 306 39 340 6 35 13 102 17 151 4 48 10 90 15 93 10 6 14 -17 44 -271 14 -115 28 -217 30 -225 3 -8 16 -109 30 -225 14 -115 30 -239 35 -275 6 -36 23 -175 40 -310 16 -135 35 -299 44 -365 44 -354 76 -648 86 -790 6 -88 13 -167 16 -175 2 -8 99 -73 215 -144 212 -130 228 -136 229 -88 0 48 52 672 60 737 11 80 49 452 95 920 14 138 34 333 45 435 11 102 29 293 40 425 12 132 23 247 25 255 2 8 11 96 20 195 9 99 18 181 21 184 2 2 4 0 4 -6 0 -24 51 -656 60 -753 12 -118 55 -666 100 -1265 16 -220 34 -452 40 -515 5 -63 19 -279 30 -480 27 -484 32 -529 60 -550 12 -9 71 -45 133 -81 61 -35 130 -83 154 -105 24 -23 45 -39 46 -35 2 3 -9 184 -24 401 -16 217 -33 505 -38 640 -10 239 -31 572 -51 795 -5 61 -23 295 -40 520 -16 226 -32 424 -35 440 -2 17 -16 183 -30 370 -14 187 -32 410 -40 495 -8 85 -24 272 -35 415 -11 143 -25 298 -30 345 -6 47 -19 211 -30 365 -27 379 -61 815 -66 843 -2 12 -10 22 -17 21 -6 0 -93 -52 -192 -114z"/>
 <path d="M5200 5557 c-72 -19 -126 -53 -198 -125 -81 -80 -136 -170 -193 -312 -71 -180 -96 -275 -143 -550 -57 -334 -71 -548 -71 -1115 0 -595 13 -799 76 -1160 32 -188 65 -316 115 -446 172 -456 399 -565 711 -342 60 43 193 178 193 196 0 5 9 21 20 35 39 51 152 227 201 313 64 114 112 227 154 367 34 110 95 383 95 421 0 14 -12 21 -47 29 -27 6 -106 25 -178 41 -71 17 -133 31 -137 31 -4 0 -10 -21 -13 -47 -43 -307 -161 -549 -317 -656 -128 -88 -269 -42 -348 113 -101 200 -143 518 -143 1105 0 350 12 578 39 774 47 344 150 558 290 604 118 38 244 -37 337 -204 63 -112 130 -351 152 -536 8 -70 20 -78 65 -43 14 11 29 20 33 20 5 0 21 8 35 19 29 20 103 62 169 96 75 39 73 32 51 153 -63 355 -181 667 -326 862 -55 73 -186 210 -202 210 -5 0 -15 6 -22 14 -8 7 -29 21 -48 31 -18 9 -51 30 -72 45 -72 53 -196 78 -278 57z"/>
 </g>

</svg>