<!DOCTYPE svg PUBLIC "-//W3C//DTD SVG 20010904//EN" "http://www.w3.org/TR/2001/REC-SVG-20010904/DTD/svg10.dtd">
<svg version="1.0"
  xmlns="http://www.w3.org/2000/svg" width="265px" height="271px" viewBox="0 0 2650 2710" preserveAspectRatio="xMidYMid meet" fill="#fbfbfb">
  <g id="layer101" stroke="none">
    <path d="M1075 2686 c-119 -23 -196 -46 -285 -84 -185 -79 -315 -168 -456 -314 -140 -144 -235 -299 -303 -491 -37 -104 -39 -137 -10 -163 19 -18 42 -19 298 -22 162 -2 288 1 303 7 15 6 38 32 58 68 95 169 224 277 405 340 72 25 93 27 215 27 122 0 143 -2 215 -28 226 -78 403 -268 462 -496 22 -87 22 -254 -1 -340 -66 -248 -258 -440 -506 -506 -87 -23 -254 -24 -340 -1 -36 9 -103 36 -150 59 -68 33 -102 58 -170 127 -53 54 -98 110 -118 148 -18 34 -43 69 -55 78 -18 13 -68 15 -309 15 -275 0 -289 -1 -308 -20 -25 -25 -25 -51 1 -136 131 -424 502 -776 936 -889 754 -196 1496 271 1660 1045 24 116 24 380 0 502 -106 531 -509 943 -1042 1064 -97 22 -406 28 -500 10z"/>
    <path d="M1199 1666 c-130 -46 -209 -151 -217 -286 -5 -99 21 -171 86 -238 72 -73 129 -97 232 -96 72 0 93 4 137 27 66 34 116 84 150 150 23 44 27 65 28 137 0 102 -23 159 -95 231 -79 79 -219 112 -321 75z"/>
  </g>

</svg>