<!DOCTYPE svg PUBLIC "-//W3C//DTD SVG 20010904//EN" "http://www.w3.org/TR/2001/REC-SVG-20010904/DTD/svg10.dtd">
<svg version="1.0"
  xmlns="http://www.w3.org/2000/svg" width="146px" height="99px" viewBox="0 0 1460 990" preserveAspectRatio="xMidYMid meet">
  <g id="layer101" fill="#f05423" stroke="none">
    <path d="M915 978 c-11 -6 -40 -29 -64 -50 -24 -21 -55 -41 -68 -44 -43 -11 -23 -21 26 -13 65 10 81 19 125 73 30 37 34 46 19 46 -10 0 -27 -6 -38 -12z"/>
    <path d="M535 847 c-75 -25 -129 -59 -188 -119 -33 -32 -57 -61 -55 -63 3 -3 30 9 61 26 73 39 146 48 216 24 31 -10 63 -14 81 -10 38 8 38 21 0 29 -70 13 -11 56 79 56 50 0 117 26 141 55 14 17 12 17 -20 9 -41 -10 -97 -11 -200 -1 -52 5 -87 3 -115 -6z"/>
    <path d="M925 698 c11 -7 49 -41 85 -74 68 -64 104 -87 156 -98 35 -8 124 11 124 26 0 6 -11 7 -25 4 -32 -8 -62 7 -103 55 -42 49 -122 87 -197 94 -51 5 -57 4 -40 -7z"/>
    <path d="M1180 701 c0 -5 -3 -17 -6 -25 -5 -13 0 -16 25 -14 17 1 31 6 31 11 0 5 7 4 15 -3 13 -11 15 -8 15 14 0 21 -5 26 -24 26 -15 0 -26 -7 -29 -17 -4 -17 -5 -17 -6 0 -1 17 -21 25 -21 8z"/>
    <path d="M403 681 c-138 -47 -223 -168 -223 -316 0 -167 -59 -275 -149 -275 -46 0 -38 -14 27 -43 88 -39 144 -50 240 -45 125 6 162 29 323 199 137 145 183 177 265 187 24 2 44 8 44 12 0 4 -24 15 -52 23 -66 21 -115 11 -169 -32 -51 -41 -83 -53 -114 -41 -53 20 -18 125 63 187 63 48 136 66 243 61 87 -4 88 -4 71 15 -48 54 -164 93 -237 81 -34 -5 -55 -21 -145 -114 -58 -59 -115 -111 -128 -115 -34 -10 -79 12 -87 42 -14 57 63 155 133 169 17 4 29 10 26 15 -9 15 -75 10 -131 -10z m-167 -616 c19 -14 19 -14 -3 -15 -12 0 -29 3 -38 6 -13 5 -14 8 -3 15 18 12 21 11 44 -6z"/>
    <path d="M1300 655 c-23 -19 -50 -35 -61 -35 -10 0 -19 -4 -19 -9 0 -13 26 -21 70 -21 31 0 48 8 85 40 25 22 53 40 61 40 8 0 12 5 9 10 -3 6 -28 10 -55 10 -40 0 -55 -6 -90 -35z"/>
    <path d="M805 563 c-42 -11 -38 -23 8 -23 36 0 66 -10 128 -42 69 -37 90 -43 142 -43 59 0 127 19 127 35 0 4 -22 5 -50 2 -42 -4 -60 1 -126 32 -76 37 -175 54 -229 39z"/>
    <path d="M1229 397 c-6 -14 -27 -33 -46 -42 -32 -16 -39 -16 -98 0 -90 25 -205 17 -276 -18 -52 -25 -145 -107 -122 -107 7 0 14 4 17 9 13 20 102 52 161 58 47 4 84 0 149 -16 72 -18 92 -20 127 -11 50 14 85 50 100 102 12 47 5 62 -12 25z"/>
    <path d="M757 240 c-27 -10 -74 -38 -105 -62 l-57 -43 42 -3 c50 -4 114 22 174 70 34 27 50 33 90 33 52 0 64 9 27 19 -44 11 -123 5 -171 -14z"/>
  </g>
</svg>