<svg class="img-fluid" id="outputsvg" xmlns="http://www.w3.org/2000/svg" style="transform: matrix(1, 0, 0, 1, 0, 0); transform-origin: 50% 50%; max-height: none; transition: transform 200ms ease-in-out 0s;" width="221" height="251" viewBox="0 0 2210 2510"><defs><linearGradient id="lgpOnLHRG13tZV8" gradientUnits="userSpaceOnUse" x1="26.244345%" y1="53.386456%" x2="49.321266%" y2="53.386456%"><stop offset="0%" style="stop-color:rgb(124,0,0);"></stop><stop offset="98%" style="stop-color:rgb(154,0,0);"></stop><stop offset="100%" style="stop-color:rgb(151,0,0);"></stop></linearGradient><linearGradient id="lg2Iwi1ZZhEatub5" gradientUnits="userSpaceOnUse" x1="51.13122%" y1="48.60558%" x2="74.208145%" y2="48.60558%"><stop offset="0%" style="stop-color:rgb(210,0,0);"></stop><stop offset="100%" style="stop-color:rgb(251,0,0);"></stop></linearGradient></defs><g id="l1ptKaF8xFWWEl2Bp9vJLfY" fill="rgb(233,221,147)" style="transform: none;"><g style="transform: none;"><path id="pBzLbTvEI" d="M645 2383 c-242 -69 -442 -127 -443 -129 -4 -2 -201 -2199 -202 -2236 0 -17 59 -18 1105 -18 1046 0 1105 1 1105 18 0 25 -20 51 -27 35 -4 -10 -228 -13 -1073 -13 l-1069 0 4 47 c2 27 9 102 15 168 5 66 17 194 25 285 8 91 21 244 30 340 8 96 24 274 35 395 30 332 70 791 77 872 l6 72 56 16 c31 9 79 23 106 31 408 116 692 194 707 194 11 0 90 -20 176 -44 286 -81 546 -154 612 -172 36 -9 70 -21 76 -26 6 -4 14 -54 18 -111 4 -56 11 -145 16 -197 16 -157 40 -434 40 -458 0 -15 6 -22 20 -22 11 0 20 5 20 12 0 19 -72 813 -73 814 -9 5 -908 254 -914 253 -4 -1 -206 -58 -448 -126z"></path><path id="pY10GwdX9" d="M2050 1383 c0 -21 7 -110 15 -198 8 -88 15 -170 15 -182 0 -16 6 -23 20 -23 12 0 20 7 20 16 0 26 -30 357 -36 392 -7 47 -34 43 -34 -5z"></path><path id="pBYIUviRh" d="M2090 939 c0 -29 26 -339 49 -589 6 -58 13 -144 16 -192 6 -78 9 -88 26 -88 11 0 19 7 19 17 0 29 -70 816 -76 851 -7 43 -34 44 -34 1z"></path></g></g><g id="lON7Y2VoRBcf1AU0TxkCOC" fill="rgb(255,219,63)" style="transform: none;"><g style="transform: none;"><path id="p3gNt91Np" d="M1080 2240 l0 -111 118 -55 c159 -75 268 -140 324 -194 l46 -45 6 -95 c16 -273 17 -259 -10 -277 -33 -21 -31 -65 5 -111 29 -37 29 -39 41 -237 l12 -200 -31 -26 c-41 -34 -41 -67 3 -111 37 -37 37 -38 51 -290 l6 -107 -78 38 c-119 58 -390 141 -460 141 l-33 0 0 -195 0 -195 476 0 477 0 -6 117 c-4 65 -13 195 -22 288 -19 209 -31 344 -44 500 -6 66 -17 192 -26 280 -8 88 -24 266 -35 395 -33 381 -35 391 -53 405 -9 6 -54 22 -99 34 -46 12 -121 33 -168 46 -233 67 -424 115 -460 115 l-40 0 0 -110z"></path><path id="p6Qu8xCW9" d="M146 1598 c-10 -38 -7 -48 14 -48 16 0 20 7 20 35 0 40 -24 49 -34 13z"></path><path id="pPjqkcnqo" d="M106 1158 c-10 -38 -7 -48 14 -48 16 0 20 7 20 35 0 40 -24 49 -34 13z"></path><path id="pBM7ixtI5" d="M26 258 c-10 -38 -7 -48 14 -48 16 0 20 7 20 35 0 40 -24 49 -34 13z"></path></g></g><g id="l4ycuSB6EonKVqXy8kaqKkJ" fill="rgb(214,187,50)" style="transform: none;"><g style="transform: none;"><path id="pFVv6dBg1" d="M745 2404 c-340 -97 -391 -112 -486 -139 l-56 -16 -6 -72 c-6 -75 -51 -581 -87 -982 -11 -126 -29 -329 -40 -450 -11 -121 -24 -272 -30 -335 -5 -63 -15 -176 -21 -250 -6 -74 -13 -138 -15 -142 -3 -4 490 -8 1095 -8 l1101 0 0 27 c0 15 -4 65 -10 112 -5 47 -14 142 -20 211 -17 208 -88 1008 -115 1310 -8 96 -20 218 -25 270 -5 52 -12 141 -16 197 -4 57 -12 107 -18 111 -6 5 -40 17 -76 26 -65 18 -321 89 -610 171 -85 24 -173 46 -195 49 -31 4 -116 -17 -370 -90z m552 -129 c93 -25 206 -56 253 -70 47 -13 122 -34 168 -46 45 -12 90 -28 99 -34 18 -14 20 -24 53 -405 11 -129 27 -307 35 -395 9 -88 20 -214 26 -280 10 -119 15 -176 44 -500 8 -93 18 -209 21 -257 l7 -88 -447 0 -446 0 0 166 c0 153 1 165 18 160 9 -2 60 -16 112 -30 250 -67 389 -134 437 -212 11 -17 12 -15 12 16 1 58 -9 80 -35 80 -13 0 -24 5 -24 10 0 6 -13 10 -30 10 -18 0 -30 5 -30 13 0 15 -41 37 -70 37 -10 0 -20 4 -22 9 -4 11 -242 84 -344 106 -38 8 -154 24 -259 35 -104 11 -214 23 -244 26 l-54 6 7 146 c4 81 9 170 13 199 l6 52 51 11 c28 5 135 34 239 63 l187 52 0 31 c0 30 -2 31 -52 38 -29 3 -136 6 -236 6 l-184 0 6 123 c4 67 9 145 12 172 l5 50 107 33 c59 19 160 52 225 75 l117 41 0 34 0 35 -117 -6 c-65 -4 -164 -10 -221 -13 l-103 -7 7 139 c4 81 11 144 18 150 6 6 79 21 161 33 246 34 259 35 293 17 17 -9 40 -16 52 -16 11 0 20 -4 20 -8 0 -10 65 -42 85 -42 8 0 15 -4 15 -8 0 -11 66 -42 90 -42 11 0 20 -7 20 -15 0 -9 9 -15 25 -15 16 0 25 -6 25 -15 0 -8 9 -15 20 -15 11 0 20 -7 20 -15 0 -11 11 -15 38 -15 l37 1 -35 30 c-50 42 -166 109 -302 173 l-118 55 0 81 c0 46 4 80 10 80 5 0 85 -20 177 -45z"></path><path id="p11YgGirHY" d="M1570 1735 c0 -58 2 -65 20 -65 17 0 20 7 20 43 0 56 -9 87 -26 87 -11 0 -14 -16 -14 -65z"></path><path id="p17ugvsW6F" d="M1580 1533 c-1 -48 -17 -83 -39 -83 -6 0 -11 -15 -11 -34 0 -26 7 -41 30 -59 17 -14 30 -30 30 -36 0 -6 9 -11 20 -11 29 0 25 29 -10 72 l-30 36 25 16 c20 13 25 25 25 59 0 56 -9 87 -26 87 -10 0 -14 -14 -14 -47z"></path><path id="pXF7bujLz" d="M1600 1190 c0 -53 2 -60 20 -60 16 0 20 7 20 38 0 52 -10 82 -26 82 -10 0 -14 -16 -14 -60z"></path><path id="p49oAUE9E" d="M1610 1020 c0 -53 2 -60 20 -60 16 0 20 7 20 38 0 52 -10 82 -26 82 -10 0 -14 -16 -14 -60z"></path><path id="pr2KxK481" d="M1595 900 c-9 -10 -20 -40 -23 -65 -4 -41 -2 -47 17 -52 11 -3 21 -12 21 -19 0 -8 10 -14 25 -14 34 0 31 16 -8 55 l-34 34 29 21 c32 24 38 60 10 60 -11 0 -27 -9 -37 -20z"></path><path id="pIP8qmX3c" d="M1630 670 c0 -53 2 -60 20 -60 16 0 20 7 20 38 0 52 -10 82 -26 82 -10 0 -14 -16 -14 -60z"></path><path id="p1DTQIkjkC" d="M1640 480 c0 -43 3 -50 20 -50 15 0 20 7 20 28 0 42 -11 72 -26 72 -10 0 -14 -14 -14 -50z"></path></g></g><g id="l4mdhA36GWP3X10TZN0G1md" fill="rgb(244,0,0)" style="transform: none;"><g style="transform: none;"><path id="ptbNaX5YL" d="M1078 2153 c-10 -2 -18 -10 -18 -18 0 -14 30 -25 73 -25 15 0 27 -6 27 -13 0 -15 61 -47 90 -47 11 0 20 -4 20 -10 0 -5 7 -10 15 -10 8 0 15 -3 15 -8 0 -4 20 -18 44 -31 44 -23 45 -24 50 -85 3 -33 5 -104 4 -156 -2 -114 15 -151 93 -200 27 -18 60 -46 74 -62 30 -36 55 -32 50 9 -2 15 -7 104 -11 196 -6 159 -8 170 -31 197 -46 55 -193 142 -397 234 -43 20 -79 35 -80 35 0 -1 -9 -3 -18 -6z" fill="url(#lg2Iwi1ZZhEatub5)"></path><path id="pCWroagdu" d="M888 2133 c-33 -8 -20 -33 17 -33 28 0 35 4 35 20 0 20 -14 23 -52 13z"></path><path id="pRQ4gHoOY" d="M616 1918 c-10 -38 -7 -48 14 -48 16 0 20 7 20 35 0 40 -24 49 -34 13z"></path><path id="pTptgKvJ0" d="M910 1770 c0 -21 10 -24 48 -14 36 10 27 34 -13 34 -28 0 -35 -4 -35 -20z"></path><path id="p6gfuWyOh" d="M760 1760 c0 -21 10 -24 48 -14 36 10 27 34 -13 34 -28 0 -35 -4 -35 -20z"></path><path id="pu9PN0d5t" d="M596 1568 c-10 -38 -7 -48 14 -48 16 0 20 7 20 35 0 40 -24 49 -34 13z"></path><path id="pdzPl0589" d="M1436 1458 c-33 -201 -38 -247 -33 -295 3 -30 13 -65 21 -78 9 -14 16 -31 16 -39 0 -9 22 -27 49 -41 28 -14 69 -43 92 -65 63 -60 73 -55 66 33 -4 39 -10 139 -13 221 l-7 149 -33 37 c-29 32 -31 37 -16 46 14 9 9 15 -29 37 -25 15 -60 27 -77 27 -27 0 -32 -4 -36 -32z" fill="url(#lg2Iwi1ZZhEatub5)"></path><path id="p1CqqC647g" d="M1423 903 c-14 -30 -16 -151 -4 -278 4 -46 3 -91 -2 -106 l-10 -25 -93 27 c-106 32 -231 59 -269 59 -41 0 -31 -28 13 -35 57 -10 287 -74 366 -102 102 -36 203 -91 233 -127 l26 -31 -7 140 c-16 351 -15 343 -53 380 -20 20 -30 36 -24 40 20 12 11 22 -48 54 -74 39 -111 41 -128 4z" fill="url(#lg2Iwi1ZZhEatub5)"></path><path id="pOxqTPrDU" d="M680 606 c0 -13 28 -26 58 -26 6 0 12 9 12 20 0 16 -7 20 -35 20 -23 0 -35 -5 -35 -14z"></path><path id="p2EgDsOaF" d="M870 586 c0 -13 28 -26 58 -26 6 0 12 9 12 20 0 16 -7 20 -35 20 -23 0 -35 -5 -35 -14z"></path></g></g><g id="l2nwvD0tNjAWMlxnD0di6Hc" fill="rgb(227,0,0)" style="transform: none;"><g style="transform: none;"><path id="pIknicey8" d="M988 2143 c-33 -8 -20 -33 17 -33 28 0 35 4 35 20 0 20 -14 23 -52 13z"></path><path id="p16qyA4JKy" d="M1110 2125 c0 -22 4 -25 36 -25 44 0 42 18 -4 37 -31 13 -32 12 -32 -12z"></path><path id="pzLUF45J1" d="M898 2133 c-33 -8 -20 -33 17 -33 28 0 35 4 35 20 0 20 -14 23 -52 13z"></path><path id="pjjqFOgt9" d="M688 2103 c-33 -8 -20 -33 17 -33 28 0 35 4 35 20 0 20 -14 23 -52 13z"></path><path id="pfL7pMnz9" d="M1225 1957 c2 -170 14 -287 29 -287 15 0 200 -93 204 -102 2 -5 10 -8 18 -8 8 0 14 -4 14 -10 0 -5 7 -10 15 -10 8 0 15 -4 15 -10 0 -5 11 -10 25 -10 16 0 25 -6 25 -15 0 -8 8 -15 18 -15 15 0 19 8 19 33 1 22 -1 27 -6 14 -6 -17 -8 -17 -20 -4 -7 9 -34 30 -61 47 -76 49 -92 85 -91 202 1 53 4 103 7 112 3 8 0 24 -6 36 -11 20 -10 21 19 17 16 -3 34 -8 40 -12 6 -3 9 0 6 8 -5 12 -188 120 -246 144 l-26 11 2 -141z" fill="url(#lg2Iwi1ZZhEatub5)"></path><path id="pB56r99bo" d="M616 1908 c-10 -38 -7 -48 14 -48 16 0 20 7 20 35 0 40 -24 49 -34 13z"></path><path id="pQUVJC9b7" d="M890 1770 c0 -21 16 -25 58 -14 39 11 27 34 -18 34 -33 0 -40 -3 -40 -20z"></path><path id="pshoxI7f3" d="M750 1760 c0 -21 10 -24 48 -14 36 10 27 34 -13 34 -28 0 -35 -4 -35 -20z"></path><path id="plYwvemO1" d="M1245 1559 c-10 -35 -19 -329 -10 -394 5 -43 10 -55 24 -55 10 0 20 -3 24 -6 15 -16 165 -74 189 -74 31 0 37 14 12 24 -9 4 -14 9 -11 13 4 3 -2 20 -12 37 -30 49 -33 88 -17 185 9 50 16 102 16 116 0 14 5 25 11 25 6 0 8 7 5 16 -5 12 5 10 38 -10 24 -14 46 -22 50 -19 12 12 6 43 -9 43 -8 0 -15 4 -15 8 0 18 -190 105 -239 110 -44 4 -49 2 -56 -19z" fill="url(#lg2Iwi1ZZhEatub5)"></path><path id="pPdSvEWjO" d="M586 1378 c-10 -38 -7 -48 14 -48 16 0 20 7 20 35 0 40 -24 49 -34 13z"></path><path id="pfLAvFCZy" d="M950 1216 c0 -15 30 -26 73 -26 20 0 27 5 27 20 0 17 -7 20 -50 20 -36 0 -50 -4 -50 -14z"></path><path id="p1ok6gmN7" d="M995 1170 c-16 -7 -13 -9 18 -9 20 -1 37 4 37 9 0 12 -27 12 -55 0z"></path><path id="p17HlqAhXo" d="M1520 1005 c0 -18 5 -25 20 -25 11 0 20 -7 20 -15 0 -10 11 -15 35 -15 19 0 35 2 35 5 0 7 -92 75 -101 75 -5 0 -9 -11 -9 -25z"></path><path id="pxQQyKOIv" d="M1260 991 c0 -5 -9 -12 -19 -16 -29 -9 -32 -43 -21 -245 6 -122 6 -186 0 -188 -6 -2 -10 -9 -10 -16 0 -11 148 -62 200 -69 8 -2 20 -6 26 -9 14 -9 17 32 13 157 -2 55 -4 136 -4 180 0 76 1 80 23 83 23 3 23 4 5 18 -25 20 65 -24 101 -49 16 -12 26 -16 23 -10 -4 7 -3 14 2 18 14 8 2 35 -15 35 -8 0 -14 4 -14 9 0 8 -94 54 -188 90 -55 22 -122 28 -122 12z" fill="url(#lg2Iwi1ZZhEatub5)"></path><path id="p18F2aNGXR" d="M556 848 c-10 -38 -7 -48 14 -48 16 0 20 7 20 35 0 40 -24 49 -34 13z"></path><path id="pknx2q53z" d="M780 596 c0 -13 28 -26 58 -26 6 0 12 9 12 20 0 16 -7 20 -35 20 -23 0 -35 -5 -35 -14z"></path><path id="pdxr9hWOi" d="M880 586 c0 -13 28 -26 58 -26 6 0 12 9 12 20 0 16 -7 20 -35 20 -23 0 -35 -5 -35 -14z"></path></g></g><g id="l5gHrRne25h6BNpmSVPVkJH" fill="rgb(213,0,0)" style="transform: none;"><g style="transform: none;"><path id="pw74UzKyC" d="M998 2143 c-33 -8 -20 -33 17 -33 28 0 35 4 35 20 0 20 -14 23 -52 13z"></path><path id="p3hrx7CAv" d="M1085 2038 c-3 -62 -5 -155 -3 -206 l3 -94 75 -30 c41 -16 87 -36 102 -44 14 -8 36 -14 47 -14 12 0 21 -4 21 -10 0 -5 16 -10 35 -10 19 0 35 4 35 8 0 5 -25 22 -57 37 -31 16 -51 31 -45 33 6 2 4 10 -7 21 -25 25 -46 156 -35 218 4 26 8 55 8 64 1 9 7 23 15 33 8 9 11 19 7 23 -3 3 -6 1 -6 -5 0 -6 -7 -9 -15 -6 -8 4 -15 12 -15 19 0 11 -127 75 -149 75 -5 0 -12 -51 -16 -112z" fill="url(#lg2Iwi1ZZhEatub5)"></path><path id="pzgVuzU2a" d="M908 2133 c-33 -8 -20 -33 17 -33 28 0 35 4 35 20 0 20 -14 23 -52 13z"></path><path id="p3oAEU2dL" d="M758 2113 c-33 -8 -20 -33 17 -33 28 0 35 4 35 20 0 20 -14 23 -52 13z"></path><path id="plRQU1WO6" d="M616 1898 c-11 -42 -7 -58 14 -58 17 0 20 7 20 40 0 45 -23 57 -34 18z"></path><path id="pysXEkDpq" d="M880 1770 c0 -21 10 -24 48 -14 36 10 27 34 -13 34 -28 0 -35 -4 -35 -20z"></path><path id="p124NMlIdx" d="M740 1760 c0 -21 10 -24 48 -14 36 10 27 34 -13 34 -28 0 -35 -4 -35 -20z"></path><path id="pViKA5fEB" d="M630 1750 c0 -21 10 -24 48 -14 36 10 27 34 -13 34 -28 0 -35 -4 -35 -20z"></path><path id="p15xEmImSU" d="M1087 1643 c-8 -8 -9 -429 -1 -458 4 -15 33 -30 112 -59 59 -21 136 -52 171 -68 65 -28 121 -37 121 -17 0 10 -138 79 -158 79 -5 0 -23 18 -40 40 -32 39 -32 40 -32 152 1 62 4 134 7 161 5 42 8 47 32 47 l26 1 -25 15 -25 15 25 -7 c21 -5 76 -27 103 -41 4 -2 7 7 7 21 0 19 -5 26 -19 26 -11 0 -21 3 -23 8 -3 8 -46 26 -157 68 -63 24 -111 30 -124 17z" fill="url(#lg2Iwi1ZZhEatub5)"></path><path id="p12MRi7hpv" d="M1440 1595 c0 -22 4 -25 35 -25 43 0 44 10 6 33 -38 22 -41 22 -41 -8z"></path><path id="pF5gBArWh" d="M596 1558 c-10 -38 -7 -48 14 -48 16 0 20 7 20 35 0 40 -24 49 -34 13z"></path><path id="ppUAbvhjx" d="M1420 1502 c0 -8 71 -52 84 -52 14 0 5 48 -10 54 -23 9 -74 7 -74 -2z"></path><path id="pVEvdNjIu" d="M1580 1486 c0 -18 -7 -25 -30 -29 -35 -8 -38 -17 -10 -35 18 -11 24 -9 50 16 20 21 27 36 23 51 -7 29 -33 27 -33 -3z"></path><path id="pl75tBg3L" d="M586 1368 c-10 -38 -7 -48 14 -48 16 0 20 7 20 35 0 40 -24 49 -34 13z"></path><path id="p4SNi3l8y" d="M990 1216 c0 -7 15 -18 33 -24 22 -7 26 -10 12 -11 -11 -1 -27 -6 -35 -11 -11 -7 -5 -10 23 -10 36 0 37 1 37 35 0 33 -2 35 -35 35 -23 0 -35 -5 -35 -14z"></path><path id="ppgrNmsR1" d="M1087 1053 c-4 -3 -7 -112 -7 -240 l0 -234 -60 7 c-50 6 -60 4 -60 -9 0 -15 13 -20 100 -33 44 -6 193 -39 228 -50 10 -4 13 -3 6 3 -24 19 -35 77 -43 236 -9 166 -7 207 9 207 5 0 15 7 24 15 13 14 21 13 68 -6 106 -42 98 -41 98 -14 0 20 -5 25 -25 25 -14 0 -25 5 -25 10 0 6 -11 10 -24 10 -13 0 -26 4 -28 9 -1 4 -46 22 -98 40 -91 30 -149 39 -163 24z" fill="url(#lg2Iwi1ZZhEatub5)"></path><path id="psTeXxSeT" d="M1500 1015 c0 -22 4 -25 35 -25 43 0 44 10 6 33 -38 22 -41 22 -41 -8z"></path><path id="pQTUAYNG0" d="M1600 948 c0 -34 3 -38 25 -38 31 0 32 11 0 47 l-24 28 -1 -37z"></path><path id="p1AfezPRGc" d="M1550 862 c0 -4 9 -13 19 -19 16 -10 22 -8 37 8 17 18 16 19 -19 19 -21 0 -37 -3 -37 -8z"></path><path id="p1EiIsUj8J" d="M556 838 c-10 -38 -7 -48 14 -48 16 0 20 7 20 35 0 40 -24 49 -34 13z"></path><path id="pprXGRDeu" d="M570 616 c0 -7 10 -16 23 -20 41 -11 57 -7 57 14 0 17 -7 20 -40 20 -27 0 -40 -4 -40 -14z"></path><path id="pBDF4ogsW" d="M690 606 c0 -13 28 -26 58 -26 6 0 12 9 12 20 0 16 -7 20 -35 20 -23 0 -35 -5 -35 -14z"></path><path id="p40YH3Oey" d="M790 596 c0 -13 28 -26 58 -26 6 0 12 9 12 20 0 16 -7 20 -35 20 -23 0 -35 -5 -35 -14z"></path></g></g><g id="l3HdvqrTeosp56VDy9iiCfG" fill="rgb(194,0,0)" style="transform: none;"><g style="transform: none;"><path id="pWeM95HGK" d="M1008 2143 c-33 -8 -20 -33 17 -33 28 0 35 4 35 20 0 20 -14 23 -52 13z"></path><path id="pXnsi2DGF" d="M1080 2065 c0 -66 3 -85 14 -85 17 0 26 31 26 98 0 35 4 52 13 52 19 0 -15 20 -35 20 -16 0 -18 -11 -18 -85z"></path><path id="p1DAUrhR3R" d="M918 2133 c-33 -8 -20 -33 17 -33 28 0 35 4 35 20 0 20 -14 23 -52 13z"></path><path id="pXVSjACAX" d="M745 2111 c-55 -9 -106 -20 -112 -24 -7 -5 -13 -24 -13 -43 0 -27 4 -34 20 -34 15 0 20 7 20 24 0 29 5 31 133 47 83 11 97 15 97 31 0 21 -7 21 -145 -1z"></path><path id="pJ1FU2pwr" d="M616 1878 c-10 -38 -7 -48 14 -48 16 0 20 7 20 35 0 40 -24 49 -34 13z"></path><path id="p1DkdjMRbg" d="M1080 1767 c0 -37 27 -57 75 -57 14 0 25 -4 25 -9 0 -10 78 -41 102 -41 9 0 18 -4 20 -9 5 -13 125 -71 148 -71 11 0 20 -7 20 -15 0 -8 7 -15 15 -15 8 0 15 -4 15 -10 0 -5 5 -10 10 -10 6 0 21 -11 34 -25 25 -27 66 -34 66 -11 0 37 -148 127 -349 213 -88 37 -147 68 -149 77 -7 31 -32 17 -32 -17z"></path><path id="pvznUXWO4" d="M860 1770 c0 -21 16 -25 58 -14 39 11 27 34 -18 34 -33 0 -40 -3 -40 -20z"></path><path id="pGiqlddQH" d="M730 1760 c0 -21 10 -24 48 -14 36 10 27 34 -13 34 -28 0 -35 -4 -35 -20z"></path><path id="pJlBoYOjX" d="M620 1750 c0 -21 10 -24 48 -14 36 10 27 34 -13 34 -28 0 -35 -4 -35 -20z"></path><path id="pQbg3B3E5" d="M1080 1615 c0 -39 24 -50 33 -15 5 19 6 19 69 -4 34 -13 80 -31 101 -40 37 -16 37 -16 37 7 0 25 -33 47 -70 47 -11 0 -20 4 -20 8 0 12 -71 32 -114 32 -35 0 -36 -1 -36 -35z"></path><path id="peIN32ZaO" d="M596 1548 c-12 -48 -7 -78 14 -78 17 0 20 7 20 50 0 36 -4 50 -14 50 -7 0 -16 -10 -20 -22z"></path><path id="pUMerubcj" d="M1330 1550 c0 -5 35 -28 78 -49 42 -22 91 -49 107 -60 39 -27 45 -26 45 4 0 16 -6 25 -15 25 -8 0 -15 5 -15 10 0 6 -16 10 -35 10 -27 0 -35 4 -35 18 0 11 -14 25 -35 35 -39 19 -95 23 -95 7z"></path><path id="pw6jUyBYL" d="M586 1358 c-11 -42 -7 -58 14 -58 17 0 20 7 20 40 0 45 -23 57 -34 18z"></path><path id="pfqunS5mo" d="M1080 1206 l0 -44 78 -26 c42 -14 85 -26 95 -26 9 0 17 -4 17 -10 0 -5 18 -13 40 -16 22 -4 40 -10 40 -15 0 -5 16 -9 36 -9 66 0 31 24 -119 80 -133 50 -147 58 -152 83 -11 45 -35 34 -35 -17z"></path><path id="pwUeMXXPp" d="M1000 1217 c0 -7 12 -18 28 -24 24 -10 25 -11 5 -12 -38 -2 -37 -21 1 -21 34 0 36 2 36 35 0 33 -2 35 -35 35 -22 0 -35 -5 -35 -13z"></path><path id="pGlfT8XKn" d="M588 1063 c-33 -8 -20 -33 17 -33 28 0 35 4 35 20 0 20 -14 23 -52 13z"></path><path id="pOcmQEgKt" d="M1440 1047 c0 -25 33 -47 70 -47 11 0 20 -7 20 -15 0 -8 9 -15 20 -15 11 0 20 -7 20 -15 0 -8 9 -20 20 -27 11 -7 20 -18 20 -25 0 -7 9 -13 20 -13 24 0 26 22 4 55 -18 27 -106 88 -159 111 -34 14 -35 14 -35 -9z"></path><path id="pdlULyXxt" d="M1080 1025 c0 -24 5 -35 15 -35 8 0 15 6 15 14 0 8 4 17 9 20 15 10 241 -72 359 -131 l114 -56 20 21 21 20 -47 7 c-25 4 -46 13 -46 19 0 13 -61 46 -86 46 -9 0 -22 7 -30 15 -8 8 -31 17 -52 21 -20 4 -39 10 -42 14 -10 15 -167 60 -208 60 -41 0 -42 0 -42 -35z"></path><path id="pzhxvanNM" d="M566 998 c-11 -42 -7 -58 14 -58 17 0 20 7 20 40 0 45 -23 57 -34 18z"></path><path id="peW2PAiUk" d="M556 828 c-12 -45 -7 -68 14 -68 17 0 20 7 20 45 0 49 -23 64 -34 23z"></path><path id="p1HDPVFFan" d="M546 658 c-11 -42 -7 -58 14 -58 17 0 20 7 20 40 0 45 -23 57 -34 18z"></path><path id="pwumbMddu" d="M590 616 c0 -13 28 -26 58 -26 6 0 12 9 12 20 0 16 -7 20 -35 20 -23 0 -35 -5 -35 -14z"></path><path id="pCLXhVDMK" d="M700 606 c0 -13 28 -26 58 -26 6 0 12 9 12 20 0 16 -7 20 -35 20 -23 0 -35 -5 -35 -14z"></path><path id="p8obavBvp" d="M800 596 c0 -13 28 -26 58 -26 6 0 12 9 12 20 0 16 -7 20 -35 20 -23 0 -35 -5 -35 -14z"></path><path id="pEdMIaN8r" d="M890 586 c0 -13 28 -26 58 -26 6 0 12 9 12 20 0 16 -7 20 -35 20 -23 0 -35 -5 -35 -14z"></path><path id="psD6LDLrh" d="M970 575 c0 -14 18 -19 104 -31 44 -6 48 -5 43 10 -4 10 -7 21 -7 24 0 4 -31 8 -70 9 -54 2 -70 -1 -70 -12z"></path></g></g><g id="l3LhPHhdfnHUpHbadxpV9JF" fill="rgb(153,0,0)" style="transform: none;"><g style="transform: none;"><path id="pggho6OVi" d="M1020 2145 c-8 -2 -95 -14 -192 -26 -98 -12 -182 -25 -187 -28 -5 -4 -13 -30 -17 -59 -6 -49 -5 -52 15 -52 18 0 21 6 21 40 0 36 2 39 33 45 157 26 197 26 229 -3 10 -8 15 -19 12 -24 -3 -5 -9 -60 -13 -121 l-6 -112 -35 -5 c-26 -4 -36 -10 -38 -26 -3 -21 -1 -22 105 -18 59 2 100 1 91 -2 -10 -3 -18 -10 -18 -15 0 -11 64 -10 100 1 22 6 23 8 8 15 -16 6 -18 26 -18 201 l0 194 -37 -1 c-21 -1 -45 -3 -53 -4z" fill="url(#lgpOnLHRG13tZV8)"></path><path id="pMyJ2wygB" d="M616 1868 c-12 -45 -7 -68 14 -68 17 0 20 7 20 45 0 49 -23 64 -34 23z"></path><path id="pNyh0448a" d="M710 1760 c0 -21 16 -25 58 -14 39 11 27 34 -18 34 -33 0 -40 -3 -40 -20z"></path><path id="pT7GWlGjD" d="M610 1750 c0 -21 10 -24 48 -14 36 10 27 34 -13 34 -28 0 -35 -4 -35 -20z"></path><path id="phvnnLbZv" d="M1150 1721 c0 -20 18 -31 51 -31 10 0 19 -4 19 -10 0 -5 11 -10 25 -10 14 0 25 -4 25 -10 0 -5 16 -10 36 -10 55 0 38 19 -51 57 -92 38 -105 40 -105 14z"></path><path id="pUcwMQTit" d="M883 1604 c3 -27 10 -50 16 -52 7 -2 11 -60 11 -178 l0 -174 64 0 c36 0 68 -4 71 -10 3 -5 -3 -10 -14 -10 -12 0 -21 -5 -21 -11 0 -7 15 -10 40 -7 22 2 40 0 40 -4 0 -5 16 -8 35 -8 41 0 49 24 10 34 l-25 6 0 215 c0 133 4 215 10 215 5 0 39 -11 75 -25 l65 -24 0 24 c0 20 -5 25 -24 25 -13 0 -26 6 -28 13 -4 9 -48 13 -168 15 l-163 3 6 -47z" fill="url(#lgpOnLHRG13tZV8)"></path><path id="pWkyDptKT" d="M638 1616 c-28 -7 -38 -15 -38 -29 0 -17 5 -18 38 -12 44 8 45 8 40 32 -3 16 -8 17 -40 9z"></path><path id="pqHliXk0m" d="M1282 1568 c3 -7 26 -21 51 -30 l47 -18 0 24 c0 25 -21 36 -73 36 -19 0 -27 -4 -25 -12z"></path><path id="pNXAtKi0h" d="M1550 1526 c0 -31 20 -56 44 -56 19 0 21 27 3 43 -41 39 -47 41 -47 13z"></path><path id="pIO4KcHIy" d="M596 1508 c-12 -45 -7 -68 14 -68 17 0 20 7 20 45 0 49 -23 64 -34 23z"></path><path id="p5OKmmbuu" d="M1410 1512 c0 -8 52 -42 64 -42 3 0 6 11 6 25 0 22 -4 25 -35 25 -19 0 -35 -4 -35 -8z"></path><path id="p18UvSXdhf" d="M586 1338 c-12 -45 -7 -68 14 -68 17 0 20 7 20 45 0 49 -23 64 -34 23z"></path><path id="pUe06wxZo" d="M1210 1136 c0 -25 21 -36 73 -36 42 0 28 22 -26 42 l-47 18 0 -24z"></path><path id="pFVpaSCQ1" d="M1320 1095 c0 -20 5 -25 25 -25 14 0 25 -4 25 -10 0 -5 16 -10 35 -10 19 0 35 4 35 9 0 12 -5 15 -68 40 l-52 21 0 -25z"></path><path id="p19Szx9Vqv" d="M870 1046 c0 -29 4 -36 20 -36 19 0 20 -7 20 -177 0 -98 -3 -188 -6 -200 -5 -19 -13 -23 -50 -23 -32 0 -44 -4 -44 -15 0 -15 13 -18 155 -35 50 -6 102 -13 118 -16 l27 -6 0 246 c0 199 3 246 13 246 8 0 39 -9 70 -19 l57 -20 0 23 c0 19 -9 25 -57 39 -32 9 -118 19 -190 22 l-133 6 0 -35z" fill="url(#lgpOnLHRG13tZV8)"></path><path id="pGM6H5Knf" d="M566 978 c-12 -48 -7 -78 14 -78 17 0 20 7 20 50 0 36 -4 50 -14 50 -7 0 -16 -10 -20 -22z"></path><path id="pxrjGJqXD" d="M1292 988 c3 -7 19 -18 36 -25 31 -13 32 -12 32 12 0 22 -4 25 -36 25 -23 0 -34 -4 -32 -12z"></path><path id="pTTOwqUml" d="M1392 948 c3 -7 19 -18 36 -25 31 -13 32 -12 32 12 0 22 -4 25 -36 25 -23 0 -34 -4 -32 -12z"></path><path id="pcLI8aMtF" d="M1610 903 l0 -47 22 21 c19 19 20 26 10 48 -18 39 -32 30 -32 -22z"></path><path id="p17hWwKOq0" d="M1490 902 c0 -8 52 -42 64 -42 3 0 6 11 6 25 0 22 -4 25 -35 25 -19 0 -35 -4 -35 -8z"></path><path id="pRFfKzxTt" d="M556 798 c-12 -48 -7 -78 14 -78 17 0 20 7 20 50 0 36 -4 50 -14 50 -7 0 -16 -10 -20 -22z"></path><path id="pxrerl31M" d="M547 620 c-4 -15 0 -20 14 -20 12 0 19 7 19 20 0 11 -6 20 -14 20 -7 0 -16 -9 -19 -20z"></path><path id="ppEZ7RTiL" d="M600 616 c0 -7 10 -16 23 -20 41 -11 57 -7 57 14 0 17 -7 20 -40 20 -27 0 -40 -4 -40 -14z"></path><path id="pCtxmn6iV" d="M710 606 c0 -7 10 -16 23 -20 41 -11 57 -7 57 14 0 17 -7 20 -40 20 -27 0 -40 -4 -40 -14z"></path></g></g><g id="l7AqVSBppJpAppFqJwrlFbo" fill="rgb(139,0,0)" style="transform: none;"><g style="transform: none;"><path id="pLKEgejyB" d="M750 2109 c-113 -18 -120 -20 -120 -36 0 -12 9 -14 39 -11 l39 3 4 -125 c3 -128 -2 -150 -36 -150 -10 0 -16 -9 -16 -25 l0 -26 103 7 c56 4 107 11 114 16 7 5 20 7 30 4 37 -11 53 16 47 80 -2 32 1 96 7 140 11 75 10 84 -7 107 -17 22 -26 25 -84 25 -36 0 -90 -4 -120 -9z" fill="url(#lgpOnLHRG13tZV8)"></path><path id="pDNXfvxlD" d="M626 2018 c-3 -13 -6 -40 -6 -60 0 -31 4 -38 20 -38 18 0 20 7 20 60 0 44 -4 60 -14 60 -7 0 -16 -10 -20 -22z"></path><path id="pT6IKN2hR" d="M616 1838 c-11 -42 -7 -58 14 -58 17 0 20 7 20 40 0 45 -23 57 -34 18z"></path><path id="p11lQisp50" d="M985 1769 c-26 -6 -23 -7 18 -8 26 0 47 1 47 3 0 9 -37 12 -65 5z"></path><path id="p1AgcHybDQ" d="M1035 1750 l-40 -19 30 0 c17 -1 54 -4 83 -7 60 -8 70 6 22 31 -36 19 -45 18 -95 -5z"></path><path id="pvIQNuoC1" d="M1000 1640 c0 -18 7 -20 75 -20 68 0 75 2 75 20 0 18 -7 20 -75 20 -68 0 -75 -2 -75 -20z"></path><path id="pVUeL7Ra9" d="M764 1643 c-18 -2 -40 -13 -50 -24 -16 -18 -17 -28 -5 -137 8 -72 10 -151 6 -200 l-8 -82 129 1 c71 0 124 3 117 5 -8 4 -12 59 -13 187 0 130 -4 183 -13 189 -7 4 -8 8 -3 8 5 0 3 7 -4 15 -11 13 -8 15 15 15 23 0 26 2 15 15 -12 15 -102 18 -186 8z" fill="url(#lgpOnLHRG13tZV8)"></path><path id="pXFn7p9eG" d="M1172 1618 c2 -6 38 -26 79 -44 72 -32 74 -32 77 -12 5 26 -13 38 -55 38 -23 0 -33 5 -33 15 0 11 -11 15 -36 15 -22 0 -34 -4 -32 -12z"></path><path id="p1597W3Lb5" d="M1430 1503 c0 -5 27 -25 60 -45 l60 -37 0 29 c0 25 -4 30 -25 30 -16 0 -25 6 -25 15 0 10 -11 15 -35 15 -19 0 -35 -3 -35 -7z"></path><path id="pjG15WB74" d="M596 1478 c-10 -38 -7 -48 14 -48 16 0 20 7 20 35 0 40 -24 49 -34 13z"></path><path id="pNY1FGjkK" d="M586 1308 c-11 -42 -7 -58 14 -58 17 0 20 7 20 40 0 45 -23 57 -34 18z"></path><path id="p13KwzDKSA" d="M1050 1190 c0 -5 -7 -10 -15 -10 -8 0 -15 -4 -15 -10 0 -6 27 -10 60 -10 63 0 71 5 43 26 -21 16 -73 18 -73 4z"></path><path id="pPmh8Ox0r" d="M1150 1154 c0 -21 5 -24 35 -24 22 0 35 5 35 13 0 8 -16 18 -35 24 -33 11 -35 10 -35 -13z"></path><path id="p15EZxI3MQ" d="M1390 1065 c0 -22 4 -25 36 -25 44 0 42 18 -4 37 -31 13 -32 12 -32 -12z"></path><path id="pRF9yUKTL" d="M739 1067 c-9 -7 -20 -25 -24 -42 -14 -47 -11 -224 4 -292 12 -54 12 -64 -3 -84 -21 -31 -21 -59 2 -59 9 0 51 -5 92 -10 72 -10 151 -4 133 9 -4 3 -6 106 -3 228 l5 222 -25 4 c-14 2 8 2 48 -1 69 -5 72 -4 72 17 0 20 -3 21 -142 21 -97 -1 -148 -5 -159 -13z" fill="url(#lgpOnLHRG13tZV8)"></path><path id="pV2rOkpas" d="M598 1063 c-33 -8 -20 -33 17 -33 28 0 35 4 35 20 0 20 -14 23 -52 13z"></path><path id="pYyVUAxxA" d="M1270 997 c0 -8 16 -18 35 -24 33 -11 35 -10 35 13 0 21 -5 24 -35 24 -22 0 -35 -5 -35 -13z"></path><path id="pygMznkTV" d="M566 938 c-10 -38 -7 -48 14 -48 16 0 20 7 20 35 0 40 -24 49 -34 13z"></path><path id="p1vHyw3Uj" d="M1510 893 c0 -5 16 -18 35 -31 l35 -22 0 30 c0 28 -3 30 -35 30 -19 0 -35 -3 -35 -7z"></path><path id="p3n7dAFcv" d="M556 758 c-10 -38 -7 -48 14 -48 16 0 20 7 20 35 0 40 -24 49 -34 13z"></path><path id="pDTUFnZ5b" d="M620 616 c0 -13 28 -26 58 -26 6 0 12 9 12 20 0 16 -7 20 -35 20 -23 0 -35 -5 -35 -14z"></path></g></g><g id="l5aStqUqj0uyNEZeszZ2n6m" fill="rgb(126,0,0)" style="transform: none;"><g style="transform: none;"><path id="prTKDkZZ5" d="M654 2093 c-19 -4 -21 -15 -32 -180 -7 -97 -11 -177 -10 -179 2 -1 30 1 63 6 33 4 49 8 35 10 -20 2 -21 3 -6 7 10 3 28 13 39 23 18 17 19 23 8 67 -7 26 -12 80 -11 118 4 136 4 135 -32 134 -18 -1 -42 -4 -54 -6z" fill="url(#lgpOnLHRG13tZV8)"></path><path id="pt0aSHjK" d="M1025 1745 l-30 -13 38 -1 c27 -1 37 3 37 14 0 18 -6 18 -45 0z"></path><path id="po95NfRgn" d="M1080 1743 c0 -13 24 -27 93 -52 108 -40 328 -149 340 -168 4 -7 19 -13 32 -13 28 0 36 -34 10 -44 -9 -3 -15 0 -15 9 0 8 -11 17 -25 21 -14 3 -25 10 -25 14 0 10 -224 111 -310 140 -62 21 -70 21 -250 11 -153 -9 -199 -15 -256 -35 l-69 -24 -6 -94 c-4 -51 -10 -141 -13 -200 l-7 -108 128 2 c70 1 107 3 82 5 l-45 4 4 99 c2 54 -1 136 -7 181 -16 119 -17 118 187 129 89 5 174 7 189 4 65 -12 315 -124 390 -175 44 -29 50 -30 73 -17 15 8 26 24 28 39 6 55 -144 151 -381 244 -127 50 -147 53 -147 28z" fill="url(#lgpOnLHRG13tZV8)"></path><path id="pkuA29ofK" d="M1048 1187 c-43 -17 -35 -37 15 -37 38 0 165 -40 271 -84 21 -9 47 -16 57 -16 11 0 19 -4 19 -8 0 -5 28 -22 63 -38 34 -16 66 -35 70 -41 4 -7 19 -13 32 -13 18 0 25 -5 25 -19 0 -11 3 -26 6 -35 5 -13 -1 -16 -31 -16 -37 0 -38 0 -20 -20 24 -26 29 -25 64 9 37 36 33 58 -20 106 -40 36 -93 65 -199 110 -69 29 -312 115 -320 114 -3 -1 -17 -6 -32 -12z"></path><path id="p15RKDAoWn" d="M634 1072 l-61 -16 -7 -113 c-3 -62 -9 -164 -12 -226 l-7 -114 89 -7 c84 -6 89 -5 106 16 25 34 29 77 13 132 -23 74 -30 197 -14 227 7 13 12 31 11 40 -6 35 40 42 206 36 147 -6 165 -9 263 -43 57 -20 145 -54 194 -76 50 -21 96 -42 102 -45 9 -3 13 4 13 20 0 21 -11 29 -84 61 -47 20 -93 36 -104 36 -11 0 -22 4 -24 8 -8 20 -168 65 -258 73 -151 13 -356 9 -426 -9z" fill="url(#lgpOnLHRG13tZV8)"></path></g></g><g id="l0GutqjsbmnoZmZjVIEAEp" fill="rgb(37,35,35)" style="transform: none;"><g style="transform: none;"><path id="pVovtS97d" d="M1030 1748 c-14 -6 -101 -36 -195 -68 l-170 -59 65 0 c36 0 132 4 215 9 164 10 187 6 330 -59 49 -23 63 -25 73 -15 17 18 16 84 -2 84 -7 0 -24 11 -38 25 -27 27 -194 95 -230 94 -13 0 -34 -5 -48 -11z"></path><path id="pg8WgjjI6" d="M1040 1180 c-43 -8 -369 -99 -390 -108 -8 -3 80 -9 197 -13 116 -3 229 -10 250 -13 42 -8 252 -81 297 -103 l29 -15 -6 53 c-4 30 -7 64 -7 76 0 23 -51 46 -233 107 -82 28 -83 28 -137 16z"></path></g></g><g id="l16HcEUKQpbCSY6Jc2KUc8v" fill="rgb(32,27,27)" style="transform: none;"><g style="transform: none;"><path id="p15piMv7c3" d="M1244 1688 c-4 -6 0 -16 9 -23 10 -7 17 -17 17 -23 0 -6 14 -16 30 -24 35 -15 39 -28 9 -28 -11 0 -18 4 -15 9 3 5 -5 9 -19 9 -14 0 -22 -4 -20 -8 3 -5 -1 -11 -7 -13 -12 -5 16 -11 35 -8 4 0 7 -4 7 -10 0 -5 4 -8 9 -5 5 4 11 2 13 -2 1 -5 33 -22 71 -40 37 -17 92 -47 121 -67 53 -35 56 -36 80 -19 37 23 32 51 -15 95 -48 44 -275 163 -296 155 -8 -3 -11 -1 -8 4 3 6 2 10 -4 10 -5 0 -13 -5 -17 -12z"></path><path id="pT1Ml7EIu" d="M1280 1120 c12 -8 12 -10 1 -10 -19 0 25 -33 66 -49 18 -7 30 -18 27 -23 -3 -5 -1 -29 6 -52 10 -38 17 -45 68 -68 31 -14 76 -38 98 -52 l42 -26 26 21 c38 30 34 64 -11 107 -42 39 -237 137 -253 127 -5 -3 -10 -2 -10 3 0 6 -14 15 -31 21 -39 13 -49 14 -29 1z m254 -173 c59 -32 82 -57 52 -57 -9 0 -16 4 -16 9 0 5 -25 21 -55 37 -30 16 -55 32 -55 37 0 4 -9 7 -20 7 -11 0 -20 4 -20 9 0 13 40 -2 114 -42z"></path><path id="p13DHsKcwg" d="M1290 992 c0 -5 14 -15 31 -21 40 -14 39 -14 39 5 0 8 -4 12 -10 9 -5 -3 -10 0 -10 7 0 10 -3 9 -9 -1 -8 -12 -12 -12 -25 -2 -9 8 -16 9 -16 3z"></path></g></g><g id="l23ncs3Y8d3dteRUT3CjxN3" fill="rgb(19,19,17)" style="transform: none;"><g style="transform: none;"><path id="puJ9Z6fde" d="M1454 1536 c-7 -18 80 -106 105 -106 10 0 26 8 35 19 14 15 15 23 5 45 -11 24 -21 30 -42 27 -4 -1 -16 3 -25 7 -37 20 -72 23 -78 8z"></path><path id="pIa9Ggx2w" d="M1370 1030 c0 -28 25 -80 37 -80 8 0 19 -5 26 -10 7 -6 43 -29 81 -51 59 -36 72 -40 92 -30 31 14 40 36 25 67 -22 48 -261 143 -261 104z"></path></g></g></svg>